<svg xmlns="http://www.w3.org/2000/svg" width="1320.0" height="640.0" viewBox="0 0 1320.0 640.0"><rect width="1320.0" height="640.0" fill="#FFFFFF"/><defs><marker id="arw-374151" viewBox="0 0 10 10" refX="8.5" refY="5" markerWidth="7" markerHeight="7" orient="auto-start-reverse"><path d="M 0 0 L 10 5 L 0 10 z" fill="#374151"/></marker></defs><text font-family="Arial" font-size="15" fill="#374151" font-weight="700" text-anchor="start"><tspan x="26.0" y="40.7">Static Top-K vs BAR (ours)</tspan></text><rect x="26.0" y="60.0" width="1268.0" height="232.0" rx="6" fill="#FDF7F0" stroke="#D97706" stroke-width="1.0" stroke-dasharray="6 4"/><text x="36.0" y="78.0" font-family="Arial" font-size="9" font-weight="700" fill="#D97706">Static Top-K</text><rect x="26.0" y="316.0" width="1268.0" height="232.0" rx="6" fill="#F2F6FE" stroke="#2563EB" stroke-width="1.0" stroke-dasharray="6 4"/><text x="36.0" y="334.0" font-family="Arial" font-size="9" font-weight="700" fill="#2563EB">BAR (ours)</text><rect x="192.0" y="131.2" width="128.0" height="44.0" rx="6" fill="#F0F1F2" stroke="#6B7280" stroke-width="1.1"/><text font-family="Arial" font-size="9.5" fill="#374151" font-weight="600" text-anchor="middle"><tspan x="256.0" y="155.9">query tokens</tspan></text><rect x="192.0" y="191.2" width="128.0" height="44.0" rx="6" fill="#F0F1F2" stroke="#6B7280" stroke-width="1.1"/><text font-family="Arial" font-size="9.5" fill="#374151" font-weight="600" text-anchor="middle"><tspan x="256.0" y="215.9">cached context keys</tspan></text><rect x="336.0" y="156.2" width="150.0" height="54.0" rx="6" fill="#EAEBED" stroke="#6B7280" stroke-width="1.1"/><text font-family="Arial" font-size="9.5" fill="#374151" font-weight="600" text-anchor="middle"><tspan x="411.0" y="185.9">Backbone encoder</tspan></text><rect x="502.0" y="156.2" width="150.0" height="54.0" rx="6" fill="#EAEBED" stroke="#6B7280" stroke-width="1.1"/><text font-family="Arial" font-size="9.5" fill="#374151" font-weight="600" text-anchor="middle"><tspan x="577.0" y="185.9">Similarity index</tspan></text><rect x="668.0" y="156.2" width="150.0" height="54.0" rx="6" fill="#FAECDC" stroke="#D97706" stroke-width="1.1"/><text font-family="Arial" font-size="9.5" fill="#374151" font-weight="600" text-anchor="middle"><tspan x="743.0" y="185.9">Fixed Top-K selection</tspan></text><rect x="834.0" y="156.2" width="150.0" height="54.0" rx="6" fill="#EAEBED" stroke="#6B7280" stroke-width="1.1"/><text font-family="Arial" font-size="9.5" fill="#374151" font-weight="600" text-anchor="middle"><tspan x="909.0" y="185.9">Decoder</tspan></text><rect x="1000.0" y="161.2" width="128.0" height="44.0" rx="6" fill="#F0F1F2" stroke="#6B7280" stroke-width="1.1"/><text font-family="Arial" font-size="9.5" fill="#374151" font-weight="600" text-anchor="middle"><tspan x="1064.0" y="185.9">answer tokens</tspan></text><rect x="109.0" y="387.2" width="128.0" height="44.0" rx="6" fill="#F0F1F2" stroke="#6B7280" stroke-width="1.1"/><text font-family="Arial" font-size="9.5" fill="#374151" font-weight="600" text-anchor="middle"><tspan x="173.0" y="411.9">query tokens</tspan></text><rect x="109.0" y="447.2" width="128.0" height="44.0" rx="6" fill="#F0F1F2" stroke="#6B7280" stroke-width="1.1"/><text font-family="Arial" font-size="9.5" fill="#374151" font-weight="600" text-anchor="middle"><tspan x="173.0" y="471.9">cached context keys</tspan></text><rect x="253.0" y="412.2" width="150.0" height="54.0" rx="6" fill="#EAEBED" stroke="#6B7280" stroke-width="1.1"/><text font-family="Arial" font-size="9.5" fill="#374151" font-weight="600" text-anchor="middle"><tspan x="328.0" y="441.9">Backbone encoder</tspan></text><rect x="419.0" y="412.2" width="150.0" height="54.0" rx="6" fill="#EAEBED" stroke="#6B7280" stroke-width="1.1"/><text font-family="Arial" font-size="9.5" fill="#374151" font-weight="600" text-anchor="middle"><tspan x="494.0" y="441.9">Similarity index</tspan></text><rect x="585.0" y="412.2" width="150.0" height="54.0" rx="6" fill="#E0E9FC" stroke="#2563EB" stroke-width="1.1"/><text font-family="Arial" font-size="9.5" fill="#374151" font-weight="600" text-anchor="middle"><tspan x="660.0" y="441.9">Learned router</tspan></text><rect x="751.0" y="412.2" width="150.0" height="54.0" rx="6" fill="#E0E9FC" stroke="#2563EB" stroke-width="1.1"/><text font-family="Arial" font-size="9.5" fill="#374151" font-weight="600" text-anchor="middle"><tspan x="826.0" y="441.9">Budget controller</tspan></text><rect x="917.0" y="412.2" width="150.0" height="54.0" rx="6" fill="#EAEBED" stroke="#6B7280" stroke-width="1.1"/><text font-family="Arial" font-size="9.5" fill="#374151" font-weight="600" text-anchor="middle"><tspan x="992.0" y="441.9">Decoder</tspan></text><rect x="1083.0" y="417.2" width="128.0" height="44.0" rx="6" fill="#F0F1F2" stroke="#6B7280" stroke-width="1.1"/><text font-family="Arial" font-size="9.5" fill="#374151" font-weight="600" text-anchor="middle"><tspan x="1147.0" y="441.9">answer tokens</tspan></text><text font-family="Arial" font-size="8" fill="#374151" font-weight="400" text-anchor="start"><tspan x="271.0" y="103.5">For a given query, only a few context tokens carry most of</tspan><tspan x="271.0" y="113.8">the relevant signal.</tspan></text><text font-family="Arial" font-size="8" fill="#374151" font-weight="400" text-anchor="start"><tspan x="520.0" y="359.5">Query difficulty is predictable from the query embedding, so</tspan><tspan x="520.0" y="369.8">the budget can be learned.</tspan></text><path d="M 320.0 153.2 L 328.0 153.2 L 328.0 183.2 L 336.0 183.2" fill="none" stroke="#374151" stroke-width="1.2" marker-end="url(#arw-374151)"/><path d="M 320.0 213.2 L 328.0 213.2 L 328.0 183.2 L 336.0 183.2" fill="none" stroke="#374151" stroke-width="1.2" marker-end="url(#arw-374151)"/><path d="M 486.0 183.2 L 502.0 183.2" fill="none" stroke="#374151" stroke-width="1.2" marker-end="url(#arw-374151)"/><path d="M 652.0 183.2 L 668.0 183.2" fill="none" stroke="#374151" stroke-width="1.2" marker-end="url(#arw-374151)"/><path d="M 818.0 183.2 L 834.0 183.2" fill="none" stroke="#374151" stroke-width="1.2" marker-end="url(#arw-374151)"/><path d="M 984.0 183.2 L 1000.0 183.2" fill="none" stroke="#374151" stroke-width="1.2" marker-end="url(#arw-374151)"/><path d="M 237.0 409.2 L 245.0 409.2 L 245.0 439.2 L 253.0 439.2" fill="none" stroke="#374151" stroke-width="1.2" marker-end="url(#arw-374151)"/><path d="M 237.0 469.2 L 245.0 469.2 L 245.0 439.2 L 253.0 439.2" fill="none" stroke="#374151" stroke-width="1.2" marker-end="url(#arw-374151)"/><path d="M 403.0 439.2 L 419.0 439.2" fill="none" stroke="#374151" stroke-width="1.2" marker-end="url(#arw-374151)"/><path d="M 569.0 439.2 L 585.0 439.2" fill="none" stroke="#374151" stroke-width="1.2" marker-end="url(#arw-374151)"/><path d="M 735.0 439.2 L 751.0 439.2" fill="none" stroke="#374151" stroke-width="1.2" marker-end="url(#arw-374151)"/><path d="M 901.0 439.2 L 917.0 439.2" fill="none" stroke="#374151" stroke-width="1.2" marker-end="url(#arw-374151)"/><path d="M 1067.0 439.2 L 1083.0 439.2" fill="none" stroke="#374151" stroke-width="1.2" marker-end="url(#arw-374151)"/><rect x="1172.0" y="556.0" width="122.0" height="58.0" rx="4" fill="none" stroke="#D1D5DB" stroke-dasharray="3 3"/><rect x="1180.0" y="561.0" width="12" height="12" fill="#6B7280"/><text x="1198.0" y="571.0" font-family="Arial" font-size="8" fill="#374151">shared computation</text><rect x="1180.0" y="577.0" width="12" height="12" fill="#D97706"/><text x="1198.0" y="587.0" font-family="Arial" font-size="8" fill="#374151">only in Static Top-K</text><rect x="1180.0" y="593.0" width="12" height="12" fill="#2563EB"/><text x="1198.0" y="603.0" font-family="Arial" font-size="8" fill="#374151">only in BAR (ours)</text></svg>